<?xml version="1.0" encoding="UTF-8"?>
<svg id="Capa_2" data-name="Capa 2" xmlns="http://www.w3.org/2000/svg" xmlns:xlink="http://www.w3.org/1999/xlink" viewBox="0 0 404.12 126.1">
  <defs>
    <style>
      .cls-1 {
        fill: #fff;
      }

      .cls-2 {
        fill: url(#Degradado_sin_nombre_2);
      }

      .cls-3 {
        fill: url(#Degradado_sin_nombre);
      }
    </style>
    <linearGradient id="Degradado_sin_nombre" data-name="Degradado sin nombre" x1="290.6" y1="-234.8" x2="392.2" y2="-234.8" gradientTransform="translate(0 288)" gradientUnits="userSpaceOnUse">
      <stop offset="0" stop-color="lime"/>
      <stop offset="1" stop-color="#000"/>
    </linearGradient>
    <linearGradient id="Degradado_sin_nombre_2" data-name="Degradado sin nombre 2" x1="354.1" y1="-228.21" x2="361.04" y2="-180.02" gradientTransform="translate(0 288)" gradientUnits="userSpaceOnUse">
      <stop offset=".03" stop-color="lime"/>
      <stop offset=".12" stop-color="#00f900"/>
      <stop offset=".24" stop-color="#00e900"/>
      <stop offset=".38" stop-color="#00cf00"/>
      <stop offset=".52" stop-color="#0a0"/>
      <stop offset=".68" stop-color="#007b00"/>
      <stop offset=".84" stop-color="#004100"/>
      <stop offset="1" stop-color="#000"/>
    </linearGradient>
  </defs>
  <g id="Capa_1-2" data-name="Capa 1">
    <g>
      <g>
        <path class="cls-1" d="m0,123.2V0h8.2v123.2H0Z"/>
        <path class="cls-1" d="m106.7,85.3h-9v-3.8c0-6.5-.8-11.9-2.4-16.3-1.6-4.4-3.9-8-6.8-10.7-3-2.7-6.5-4.6-10.6-5.8-4.1-1.2-8.7-1.8-13.7-1.8s-9.3.7-13.4,2.2-7.7,3.7-10.8,6.6c-3.1,3-5.4,6.6-7.2,11-1.7,4.4-2.6,9.5-2.6,15.3,0,6.7.8,12.3,2.5,16.8s4,8.1,7.2,10.9c3.1,2.8,6.9,4.8,11.5,6,4.5,1.2,9.7,1.8,15.5,1.8,4.5,0,8.6-.6,12.3-1.8,3.7-1.2,6.9-2.8,9.6-4.8s4.8-4.4,6.3-7.1c1.5-2.7,2.3-5.6,2.3-8.6l8.2.2c0,9.1-3.3,16.4-9.9,22s-16.3,8.4-29,8.4c-15.3,0-26.8-3.7-34.3-11.1s-11.2-18.3-11.2-32.6,3.6-24.8,10.9-32.2c7.3-7.5,17.8-11.2,31.6-11.2,15.3,0,26.3,3.8,32.9,11.2,6.6,7.5,9.9,18.2,9.9,32.1l.2,3.3h0Zm-80-8.2h72.5v8.2H26.7v-8.2Z"/>
        <path class="cls-1" d="m119.9,123.2V41.1h8.2v82.1h-8.2Zm71.5,0v-47.3c0-4.3-.4-8.2-1.2-11.8s-2.3-6.6-4.5-9.2-5.3-4.6-9.2-6c-3.9-1.4-9-2.1-15.1-2.1-11.1,0-19.4,3-24.9,8.9-5.5,5.9-8.3,14.7-8.3,26.3v1.5h-5.8v-1.3c0-6.6.6-12.5,1.6-17.9s3.1-9.9,6.1-13.7,7-6.7,12.1-8.8c5.1-2.1,11.6-3.1,19.6-3.1,6.7,0,12.4.8,17.2,2.5,4.8,1.6,8.7,4,11.8,7.2,3.1,3.2,5.3,7.1,6.7,11.8,1.4,4.7,2.1,10,2.1,16v47.2l-8.2-.2h0Z"/>
        <path class="cls-1" d="m214.3,50.4c1.8-2.7,4.3-4.9,7.6-6.6s7.2-3,11.6-3.9,9.3-1.2,14.5-1.2c13.5,0,23.6,2.4,30.2,7.1,6.7,4.8,10,12.5,10,23.2h-8.2c0-4.3-.7-7.8-2.2-10.7-1.5-2.9-3.6-5.1-6.4-6.8-2.8-1.7-6.2-2.9-10.1-3.6s-8.4-1.1-13.3-1.1c-5.8,0-10.5.4-14.1,1.2s-6.3,1.9-8.3,3.1c-2,1.3-3.3,2.7-4,4.3-.7,1.6-1.1,3.2-1.1,4.8,0,1.8.5,3.4,1.4,4.9s2.6,3,4.8,4.4c2.3,1.4,5.4,2.8,9.3,4.2s8.8,2.7,14.9,4,11.6,2.6,16.3,3.9c4.7,1.3,8.7,2.8,11.9,4.6s5.7,4,7.3,6.7,2.5,6.1,2.5,10.3c0,8.2-3.1,14-9.3,17.3-6.2,3.3-15.2,5-27.2,5-14.5,0-25-2.4-31.6-7.2s-9.9-12.5-9.9-23.2h8.2c0,4.2.8,7.7,2.6,10.5,1.7,2.8,4,5.1,7,6.8s6.5,2.9,10.5,3.7c4.1.8,8.4,1.2,13,1.2,5.3,0,9.6-.3,13.1-1s6.3-1.6,8.5-2.8c2.1-1.2,3.7-2.7,4.6-4.3.9-1.7,1.4-3.5,1.4-5.5,0-3.1-.7-5.5-2.1-7.2-1.4-1.8-3.5-3.2-6.3-4.3s-6.2-2-10.2-2.9c-4-.8-8.6-1.8-13.9-3-4.5-1-8.9-2.2-13.1-3.5-4.3-1.4-8.1-3.1-11.5-5.1s-6.1-4.5-8.1-7.3-3-6.3-3-10.3c0-3.8.9-7.1,2.7-9.7Z"/>
        <path class="cls-1" d="m384.2,85.3h-9v-3.8c0-6.5-.8-11.9-2.4-16.3-1.6-4.4-3.9-8-6.8-10.7-3-2.7-6.5-4.6-10.6-5.8-4.1-1.2-8.7-1.8-13.7-1.8s-9.3.7-13.4,2.2-7.7,3.7-10.8,6.6c-3.1,3-5.4,6.6-7.2,11-1.7,4.4-2.6,9.5-2.6,15.3,0,6.7.8,12.3,2.5,16.8s4,8.1,7.2,10.9c3.1,2.8,7,4.8,11.5,6s9.7,1.8,15.5,1.8c4.5,0,8.6-.6,12.3-1.8,3.7-1.2,6.9-2.8,9.6-4.8s4.8-4.4,6.3-7.1c1.5-2.7,2.3-5.6,2.3-8.6l8.2.2c0,9.1-3.3,16.4-9.9,22s-16.3,8.4-29,8.4c-15.3,0-26.8-3.7-34.3-11.1-7.5-7.4-11.2-18.3-11.2-32.6s3.6-24.8,10.9-32.2c7.3-7.5,17.8-11.2,31.6-11.2,15.3,0,26.3,3.8,32.9,11.2,6.6,7.5,9.9,18.2,9.9,32.1l.2,3.3h0Zm-80-8.2h72.5v8.2h-72.5v-8.2Z"/>
      </g>
      <path class="cls-3" d="m390.2,79.6c-1.1,0-2-.9-2-2,0-25.8-21-46.8-46.8-46.8s-46.8,21-46.8,46.8c0,1.1-.9,2-2,2s-2-.9-2-2c0-28,22.8-50.8,50.8-50.8s50.8,22.8,50.8,50.8c0,1.1-.8,2-2,2Z"/>
      <path class="cls-2" d="m380.4,126.1c-.6,0-1.1-.2-1.5-.7-.7-.8-.6-2.1.3-2.8,24.6-20.4,28-56.9,7.6-81.5-9.9-11.9-23.8-19.2-39.2-20.7-15.4-1.4-30.4,3.2-42.3,13.1-.8.7-2.1.6-2.8-.3s-.6-2.1.3-2.8c26.2-21.8,65.3-18.1,87.1,8.1s18.1,65.3-8.1,87.1c-.5.3-1,.5-1.4.5Z"/>
    </g>
  </g>
</svg>