<?xml version="1.0" encoding="UTF-8"?>
<svg id="Capa_2" data-name="Capa 2" xmlns="http://www.w3.org/2000/svg" viewBox="0 0 113.38 109.89">
  <defs>
    <style>
      .cls-1 {
        fill: #fff;
      }
    </style>
  </defs>
  <g id="Capa_1-2" data-name="Capa 1">
    <path class="cls-1" d="m93.61,69.08h-9.04v-3.78c0-6.46-.8-11.91-2.38-16.35-1.59-4.44-3.86-7.99-6.82-10.68-2.96-2.68-6.49-4.63-10.6-5.83-4.11-1.2-8.68-1.81-13.72-1.81s-9.28.74-13.39,2.22c-4.11,1.48-7.7,3.7-10.76,6.65-3.07,2.96-5.45,6.63-7.15,11.01-1.7,4.38-2.55,9.48-2.55,15.28,0,6.68.82,12.27,2.46,16.76,1.64,4.49,4.03,8.13,7.15,10.93,3.12,2.79,6.96,4.79,11.5,6s9.72,1.81,15.53,1.81c4.49,0,8.6-.6,12.32-1.81,3.72-1.2,6.93-2.82,9.61-4.85,2.68-2.03,4.79-4.38,6.33-7.07,1.53-2.68,2.3-5.56,2.3-8.63l8.21.16c0,9.09-3.31,16.43-9.94,22.02s-16.29,8.38-29,8.38c-15.34,0-26.75-3.7-34.26-11.09-7.5-7.39-11.25-18.26-11.25-32.61s3.64-24.75,10.93-32.2c7.28-7.45,17.83-11.17,31.63-11.17,15.33,0,26.31,3.75,32.94,11.25s9.94,18.21,9.94,32.12v3.29h.01ZM13.6,60.87h72.46v8.21H13.6v-8.21Z"/>
    <path class="cls-1" d="m99.62,63.42c-1.1,0-2-.9-2-2,0-25.81-21-46.81-46.81-46.81S4,35.61,4,61.42c0,1.1-.9,2-2,2s-2-.9-2-2C0,33.41,22.79,10.61,50.81,10.61s50.81,22.79,50.81,50.81c0,1.1-.9,2-2,2Z"/>
    <path class="cls-1" d="m89.76,109.89c-.57,0-1.14-.25-1.54-.72-.71-.85-.59-2.11.26-2.82,24.55-20.36,27.97-56.9,7.61-81.46-9.86-11.89-23.77-19.24-39.15-20.67-15.39-1.44-30.41,3.2-42.3,13.07-.85.71-2.11.59-2.82-.26-.71-.85-.59-2.11.26-2.82C38.33-7.56,77.4-3.91,99.17,22.34s18.12,65.32-8.13,87.09c-.38.31-.83.46-1.28.46Z"/>
  </g>
</svg>