<?xml version="1.0" encoding="UTF-8"?>
<svg id="Capa_2" data-name="Capa 2" xmlns="http://www.w3.org/2000/svg" viewBox="0 0 404.06 126.08">
  <defs>
    <style>
      .cls-1 {
        fill: #fff;
      }
    </style>
  </defs>
  <g id="Capa_1-2" data-name="Capa 1">
    <g>
      <g>
        <path class="cls-1" d="m0,123.23V0h8.21v123.23H0Z"/>
        <path class="cls-1" d="m106.79,85.27h-9.04v-3.78c0-6.46-.8-11.91-2.38-16.35-1.59-4.44-3.86-7.99-6.82-10.68-2.96-2.68-6.49-4.63-10.6-5.83-4.11-1.2-8.68-1.81-13.72-1.81s-9.28.74-13.39,2.22-7.7,3.7-10.76,6.65c-3.07,2.96-5.45,6.63-7.15,11.01s-2.55,9.48-2.55,15.28c0,6.68.82,12.27,2.46,16.76s4.03,8.13,7.15,10.93c3.12,2.79,6.95,4.79,11.5,6,4.54,1.21,9.72,1.81,15.53,1.81,4.49,0,8.6-.6,12.32-1.81,3.72-1.2,6.93-2.82,9.61-4.85,2.68-2.03,4.79-4.38,6.33-7.07,1.53-2.68,2.3-5.56,2.3-8.63l8.22.16c0,9.09-3.31,16.43-9.94,22.02s-16.29,8.38-29,8.38c-15.34,0-26.76-3.7-34.26-11.09s-11.25-18.26-11.25-32.61,3.64-24.75,10.93-32.2c7.28-7.45,17.83-11.17,31.63-11.17,15.33,0,26.31,3.75,32.94,11.25s9.94,18.21,9.94,32.12v3.29h0Zm-80.01-8.21h72.46v8.21H26.78v-8.21Z"/>
        <path class="cls-1" d="m119.93,123.23V41.08h8.21v82.15h-8.21Zm71.47,0v-47.32c0-4.27-.41-8.19-1.23-11.75s-2.33-6.63-4.52-9.2-5.26-4.57-9.2-6c-3.94-1.42-8.98-2.14-15.12-2.14-11.06,0-19.36,2.96-24.89,8.87-5.53,5.92-8.3,14.68-8.3,26.29v1.48h-5.75v-1.31c0-6.57.55-12.54,1.64-17.91s3.12-9.94,6.08-13.72,6.98-6.71,12.08-8.79c5.09-2.08,11.64-3.12,19.63-3.12,6.68,0,12.4.82,17.17,2.46,4.76,1.64,8.68,4.05,11.75,7.23,3.06,3.18,5.31,7.09,6.74,11.75,1.42,4.66,2.14,10,2.14,16.02v47.15h-8.22Z"/>
        <path class="cls-1" d="m214.32,50.36c1.81-2.68,4.35-4.9,7.64-6.65,3.29-1.75,7.15-3.04,11.58-3.86s9.28-1.23,14.54-1.23c13.47,0,23.55,2.38,30.23,7.15,6.68,4.76,10.02,12.51,10.02,23.25h-8.22c0-4.27-.74-7.83-2.22-10.68-1.48-2.85-3.61-5.12-6.41-6.82-2.79-1.7-6.16-2.9-10.1-3.61s-8.38-1.07-13.31-1.07c-5.81,0-10.49.41-14.05,1.23s-6.33,1.86-8.3,3.12-3.31,2.68-4.03,4.27c-.71,1.59-1.07,3.2-1.07,4.85,0,1.75.46,3.4,1.4,4.93.93,1.54,2.55,3.01,4.85,4.44,2.3,1.42,5.39,2.82,9.28,4.19s8.84,2.71,14.87,4.03c6.13,1.31,11.55,2.6,16.27,3.86,4.71,1.26,8.68,2.79,11.91,4.6s5.67,4.05,7.31,6.74c1.64,2.69,2.46,6.11,2.46,10.27,0,8.22-3.1,13.99-9.28,17.33-6.19,3.34-15.25,5.01-27.19,5.01-14.46,0-24.97-2.38-31.55-7.15-6.57-4.76-9.86-12.51-9.86-23.25h8.21c0,4.16.85,7.67,2.55,10.52,1.7,2.85,4.03,5.12,6.98,6.82,2.96,1.7,6.46,2.93,10.52,3.7,4.05.77,8.38,1.15,12.98,1.15,5.26,0,9.64-.33,13.14-.99s6.33-1.59,8.46-2.79c2.14-1.2,3.67-2.65,4.6-4.35.93-1.7,1.4-3.53,1.4-5.5,0-3.07-.71-5.48-2.14-7.23-1.42-1.75-3.53-3.18-6.33-4.27-2.79-1.09-6.19-2.05-10.19-2.88-4-.82-8.62-1.83-13.88-3.04-4.49-.99-8.87-2.16-13.14-3.53-4.27-1.37-8.11-3.07-11.5-5.09-3.4-2.03-6.11-4.46-8.13-7.31-2.03-2.85-3.04-6.3-3.04-10.35.03-3.87.94-7.13,2.74-9.81Z"/>
        <path class="cls-1" d="m384.29,85.27h-9.04v-3.78c0-6.46-.8-11.91-2.38-16.35-1.59-4.44-3.86-7.99-6.82-10.68-2.96-2.68-6.49-4.63-10.6-5.83-4.11-1.2-8.68-1.81-13.72-1.81s-9.28.74-13.39,2.22c-4.11,1.48-7.7,3.7-10.76,6.65-3.07,2.96-5.45,6.63-7.15,11.01-1.7,4.38-2.55,9.48-2.55,15.28,0,6.68.82,12.27,2.46,16.76,1.64,4.49,4.03,8.13,7.15,10.93,3.12,2.79,6.96,4.79,11.5,6s9.72,1.81,15.53,1.81c4.49,0,8.6-.6,12.32-1.81,3.72-1.2,6.93-2.82,9.61-4.85,2.68-2.03,4.79-4.38,6.33-7.07,1.53-2.68,2.3-5.56,2.3-8.63l8.21.16c0,9.09-3.31,16.43-9.94,22.02s-16.29,8.38-29,8.38c-15.34,0-26.75-3.7-34.26-11.09-7.5-7.39-11.25-18.26-11.25-32.61s3.64-24.75,10.93-32.2c7.28-7.45,17.83-11.17,31.63-11.17,15.33,0,26.31,3.75,32.94,11.25s9.94,18.21,9.94,32.12v3.29h.01Zm-80.01-8.21h72.46v8.21h-72.46v-8.21Z"/>
      </g>
      <path class="cls-1" d="m390.3,79.61c-1.1,0-2-.9-2-2,0-25.81-21-46.81-46.81-46.81s-46.81,21-46.81,46.81c0,1.1-.9,2-2,2s-2-.9-2-2c0-28.01,22.79-50.81,50.81-50.81s50.81,22.79,50.81,50.81c0,1.1-.9,2-2,2Z"/>
      <path class="cls-1" d="m380.44,126.08c-.57,0-1.14-.25-1.54-.72-.71-.85-.59-2.11.26-2.82,24.55-20.36,27.97-56.9,7.61-81.46-9.86-11.89-23.77-19.24-39.15-20.67-15.39-1.44-30.41,3.2-42.3,13.07-.85.71-2.11.59-2.82-.26-.71-.85-.59-2.11.26-2.82,26.25-21.77,65.32-18.12,87.09,8.13s18.12,65.32-8.13,87.09c-.38.31-.83.46-1.28.46Z"/>
    </g>
  </g>
</svg>