<?xml version="1.0" encoding="utf-8"?>
<!-- Generator: Adobe Illustrator 25.4.1, SVG Export Plug-In . SVG Version: 6.00 Build 0)  -->
<svg version="1.1" id="Capa_1" xmlns="http://www.w3.org/2000/svg" xmlns:xlink="http://www.w3.org/1999/xlink" x="0px" y="0px"
	 viewBox="0 0 390.96 97.22" style="enable-background:new 0 0 390.96 97.22;" xml:space="preserve">
<style type="text/css">
	.st0{fill:#047A79;}
	.st1{fill:none;stroke:#047A79;stroke-width:9.142;stroke-linecap:round;stroke-miterlimit:10;}
	.st2{fill:none;stroke:#047A79;stroke-width:4.0481;stroke-linecap:round;stroke-miterlimit:10;}
</style>
<g>
	<g>
		<g>
			<path class="st0" d="M61.46,76.56v15.02c0,2.43-1.97,4.4-4.4,4.4H5.17c-2.02,0-3.66-1.64-3.66-3.66V5.97c0-2.43,1.97-4.4,4.4-4.4
				h17.55c2.43,0,4.4,1.97,4.4,4.4V68.5c0,2.02,1.64,3.66,3.66,3.66h25.54C59.49,72.16,61.46,74.13,61.46,76.56z"/>
			<path class="st0" d="M145.93,56.28c0,1.09-0.05,2.18-0.13,3.28c-0.15,1.9-1.74,3.36-3.65,3.36l-47.26,0
				c-1.87,0-3.19,1.88-2.51,3.62c2.33,5.98,7.15,9.05,13.83,9.05c5.07,0,9.42-1.92,12.06-5.2c0.83-1.03,2.08-1.63,3.41-1.63l16.14,0
				c3.3,0,5.42,3.5,3.91,6.44c-6.59,12.82-19.73,20.57-35.51,20.57c-22.72,0-39.56-16.61-39.56-38.86
				c0-22.33,16.7-38.74,39.56-38.74C129.68,18.17,145.93,34.92,145.93,56.28L145.93,56.28z M91.78,49.03h29.44
				c-2.2-7.28-7.45-11.21-15.02-11.21C98.89,37.83,93.81,41.8,91.78,49.03z"/>
			<path class="st0" d="M229.65,51.57v40.01c0,2.43-1.97,4.4-4.4,4.4h-16.28c-2.43,0-4.4-1.97-4.4-4.4V55.03
				c0-8.48-3.18-12.68-9.5-12.68c-7.82,0-12.32,5.46-12.32,14.73v34.49c0,2.43-1.97,4.4-4.4,4.4h-16.28c-2.43,0-4.4-1.97-4.4-4.4
				V27.55c0-2.43,1.97-4.4,4.4-4.4h10.38c1.72,0,3.28,1,4,2.57l2.27,4.94c5.42-6.04,13.51-9.66,22.92-9.66
				C218.54,20.99,229.65,33.01,229.65,51.57z"/>
			<path class="st0" d="M273.39,95.44c-17.51,0-28.97-8.16-31.58-20.92c-0.56-2.75,1.5-5.34,4.3-5.34h15.57
				c1.84,0,3.56,1.11,4.13,2.85c1.1,3.35,4.24,4.92,8.04,4.92c3.67,0,7.15-1.87,7.15-5.64c0-4.2-5.51-5.4-12.51-6.56
				c-11.29-1.83-26.26-5.24-26.26-22.9c0-14.6,12.44-24.02,31.1-24.02c16.18,0,27.39,7.51,30.18,19.22c0.66,2.76-1.46,5.4-4.29,5.4
				h-14.9c-1.84,0-3.45-1.16-4.12-2.87c-1.05-2.68-3.7-3.94-7.18-3.94c-4.02,0-6.72,1.99-6.72,5.37c0,4.14,5.57,5.11,12.49,6.34
				c11.5,2.04,26.8,4.43,26.8,22.9C305.58,85.49,292.74,95.45,273.39,95.44L273.39,95.44z"/>
			<g>
				<path class="st0" d="M387.38,63.37c2.21,0.87,3.35,3.34,2.54,5.58c-0.63,1.73-1.47,3.65-2.6,5.67
					c-5.74,10.24-16.8,18.81-30.39,20.73c-4.28,0.61-16.94,1.7-28.96-6.69c-12.93-9.02-15.81-22.51-16.35-25.34
					c-0.7-3.7-2.26-14.75,3.95-26.22c7.97-14.72,22.59-18.76,25.67-19.53c3.02-0.75,11.11-2.39,20.73,0.33
					c1.75,0.49,15.05,4.47,23.04,17c0.22,0.35,0.43,0.69,0.62,1.01c0.68,1.14,0.39,2.61-0.68,3.4c-3.92,2.92-7.89,5.94-11.9,9.08
					c-4.01,3.14-7.91,6.27-11.69,9.38c-1.82,1.5-4.49,1.29-6.06-0.46l-3.92-4.36c-1.65-1.84-1.47-4.68,0.41-6.28
					c3.94-3.37,7.88-6.75,11.82-10.12c-1.73-0.98-10.04-5.49-19.64-2.52c-1.23,0.38-5.54,1.83-9.54,5.81c-1.93,1.92-7.37,8-7.13,17
					c0.19,7.22,3.92,12.19,5.38,13.93c5.13,6.12,12.98,8.91,19.97,8.45c9.26-0.62,17.67-7.02,21.74-16.42
					c0.94-2.17,3.43-3.19,5.63-2.32L387.38,63.37z"/>
				<g>
					<path class="st1" d="M333.3,9.87c3.8-1.56,12.57-4.58,23.87-3.28c11.59,1.33,19.48,6.46,22.74,8.87"/>
				</g>
			</g>
		</g>
	</g>
	<g>
		<path class="st2" d="M347.95,40.55c-1.57,0.43-4.15,1.3-6.66,3.25c-1.17,0.91-2.95,2.87-4.28,5.25c-1.87,3.34-1.75,6.27-1.7,7.71
			c0.08,2.24,0.71,3.73,1.13,4.89"/>
	</g>
</g>
</svg>
